<svg width="26" height="26" viewBox="0 0 26 26" fill="none" xmlns="http://www.w3.org/2000/svg">
<path fill-rule="evenodd" clip-rule="evenodd" d="M12.9998 2.16663C10.0575 2.16663 9.68917 2.17963 8.53325 2.23163C7.38059 2.28471 6.593 2.46779 5.904 2.73538C5.18086 3.00712 4.52574 3.4334 3.98434 3.98446C3.43331 4.52588 3.00703 5.181 2.73525 5.90413C2.46767 6.59313 2.28459 7.38071 2.2315 8.53338C2.17842 9.68929 2.1665 10.0576 2.1665 13C2.1665 15.9423 2.17842 16.3106 2.2315 17.4665C2.28459 18.6192 2.46767 19.4068 2.73525 20.0958C3.00706 20.8189 3.43333 21.474 3.98434 22.0155C4.52578 22.5665 5.1809 22.9927 5.904 23.2645C6.593 23.5321 7.38059 23.7152 8.53325 23.7683C9.68917 23.8203 10.0575 23.8333 12.9998 23.8333C15.9422 23.8333 16.3105 23.8203 17.4664 23.7683C18.6191 23.7152 19.4067 23.5321 20.0957 23.2645C20.8188 22.9928 21.4739 22.5665 22.0153 22.0155C22.5664 21.474 22.9926 20.8189 23.2644 20.0958C23.532 19.4068 23.7151 18.6192 23.7682 17.4665C23.8202 16.3106 23.8332 15.9423 23.8332 13C23.8332 10.0576 23.8202 9.68929 23.7682 8.53338C23.7151 7.38071 23.532 6.59313 23.2644 5.90413C22.9926 5.181 22.5664 4.52588 22.0153 3.98446C21.4739 3.4334 20.8188 3.00712 20.0957 2.73538C19.4067 2.46779 18.6191 2.28471 17.4664 2.23163C16.3105 2.17963 15.9422 2.16663 12.9998 2.16663ZM12.9998 4.11879C15.8923 4.11879 16.2347 4.12963 17.3765 4.18163C18.4338 4.23038 19.0069 4.40588 19.3893 4.55429C19.8942 4.75146 20.256 4.98654 20.6352 5.36463C21.0143 5.74379 21.2483 6.10563 21.4455 6.61046C21.5928 6.99288 21.7705 7.56596 21.8182 8.62221C21.8702 9.76513 21.881 10.1064 21.881 13C21.881 15.8925 21.8702 16.2348 21.8182 17.3766C21.7694 18.434 21.5928 19.007 21.4455 19.3895C21.2718 19.86 20.9949 20.2857 20.6352 20.6353C20.256 21.0145 19.8942 21.2485 19.3893 21.4456C19.0069 21.593 18.4338 21.7706 17.3776 21.8183C16.2358 21.8703 15.8934 21.8811 12.9998 21.8811C10.1073 21.8811 9.76392 21.8703 8.62317 21.8183C7.56584 21.7695 6.99275 21.593 6.61034 21.4456C6.13972 21.272 5.71401 20.9951 5.3645 20.6353C5.00468 20.2858 4.72779 19.8601 4.55417 19.3895C4.40575 19.007 4.22917 18.434 4.1815 17.3777C4.1295 16.2348 4.11867 15.8935 4.11867 13C4.11867 10.1075 4.1295 9.76513 4.1815 8.62329C4.23025 7.56596 4.40575 6.99288 4.55417 6.61046C4.75134 6.10563 4.98642 5.74379 5.3645 5.36463C5.74367 4.98546 6.1055 4.75146 6.61034 4.55429C6.99275 4.40588 7.56584 4.22929 8.62209 4.18163C9.765 4.12963 10.1063 4.11879 12.9998 4.11879ZM12.9998 16.6107C12.0422 16.6107 11.1238 16.2303 10.4467 15.5531C9.7695 14.876 9.38909 13.9576 9.38909 13C9.38909 12.0423 9.7695 11.1239 10.4467 10.4468C11.1238 9.76963 12.0422 9.38921 12.9998 9.38921C13.9575 9.38921 14.8759 9.76963 15.553 10.4468C16.2302 11.1239 16.6106 12.0423 16.6106 13C16.6106 13.9576 16.2302 14.876 15.553 15.5531C14.8759 16.2303 13.9575 16.6107 12.9998 16.6107ZM12.9998 7.43704C12.2693 7.43704 11.5459 7.58093 10.871 7.86049C10.1961 8.14006 9.58282 8.54982 9.06626 9.06638C8.5497 9.58295 8.13993 10.1962 7.86037 10.8711C7.58081 11.546 7.43692 12.2694 7.43692 13C7.43692 13.7305 7.58081 14.4539 7.86037 15.1288C8.13993 15.8037 8.5497 16.417 9.06626 16.9335C9.58282 17.4501 10.1961 17.8599 10.871 18.1394C11.5459 18.419 12.2693 18.5629 12.9998 18.5629C14.4752 18.5629 15.8902 17.9768 16.9334 16.9335C17.9767 15.8903 18.5628 14.4753 18.5628 13C18.5628 11.5246 17.9767 10.1096 16.9334 9.06638C15.8902 8.02313 14.4752 7.43704 12.9998 7.43704ZM20.0827 7.21713C20.0827 7.38784 20.049 7.55689 19.9837 7.71461C19.9184 7.87234 19.8226 8.01565 19.7019 8.13636C19.5812 8.25708 19.4379 8.35284 19.2802 8.41817C19.1224 8.4835 18.9534 8.51713 18.7827 8.51713C18.6119 8.51713 18.4429 8.4835 18.2852 8.41817C18.1275 8.35284 17.9841 8.25708 17.8634 8.13636C17.7427 8.01565 17.647 7.87234 17.5816 7.71461C17.5163 7.55689 17.4827 7.38784 17.4827 7.21713C17.4827 6.87234 17.6196 6.54168 17.8634 6.29789C18.1072 6.05409 18.4379 5.91713 18.7827 5.91713C19.1275 5.91713 19.4581 6.05409 19.7019 6.29789C19.9457 6.54168 20.0827 6.87234 20.0827 7.21713Z" fill="#F8F8F8"/>
</svg>
