<svg width="26" height="26" viewBox="0 0 26 26" fill="none" xmlns="http://www.w3.org/2000/svg">
<path d="M20.6374 5.31919C19.6442 4.31594 18.4611 3.5205 17.1573 2.97925C15.8535 2.43799 14.4549 2.16177 13.0432 2.16669C7.1282 2.16669 2.30737 6.98752 2.30737 12.9025C2.30737 14.7984 2.8057 16.64 3.73737 18.265L2.2207 23.8334L7.9082 22.3384C9.47904 23.1942 11.2449 23.6492 13.0432 23.6492C18.9582 23.6492 23.779 18.8284 23.779 12.9134C23.779 10.0425 22.6632 7.34502 20.6374 5.31919ZM13.0432 21.8292C11.4399 21.8292 9.86904 21.3959 8.4932 20.5834L8.1682 20.3884L4.7882 21.2767L5.68737 17.9834L5.4707 17.6475C4.57993 16.2251 4.10694 14.5809 4.1057 12.9025C4.1057 7.98419 8.11404 3.97586 13.0324 3.97586C15.4157 3.97586 17.6582 4.90752 19.3374 6.59752C20.1688 7.42515 20.8277 8.40957 21.2759 9.49373C21.724 10.5779 21.9526 11.7402 21.9482 12.9134C21.9699 17.8317 17.9615 21.8292 13.0432 21.8292ZM17.9399 15.1559C17.669 15.0259 16.3474 14.3759 16.109 14.2784C15.8599 14.1917 15.6865 14.1484 15.5024 14.4084C15.3182 14.6792 14.809 15.2859 14.6574 15.4592C14.5057 15.6434 14.3432 15.665 14.0724 15.5242C13.8015 15.3942 12.9349 15.1017 11.9165 14.1917C11.1149 13.4767 10.584 12.5992 10.4215 12.3284C10.2699 12.0575 10.3999 11.9167 10.5407 11.7759C10.6599 11.6567 10.8115 11.4617 10.9415 11.31C11.0715 11.1584 11.1257 11.0392 11.2124 10.8659C11.299 10.6817 11.2557 10.53 11.1907 10.4C11.1257 10.27 10.584 8.94836 10.3674 8.40669C10.1507 7.88669 9.9232 7.95169 9.7607 7.94086H9.2407C9.05654 7.94086 8.77487 8.00586 8.5257 8.27669C8.28737 8.54752 7.59404 9.19752 7.59404 10.5192C7.59404 11.8409 8.5582 13.1192 8.6882 13.2925C8.8182 13.4767 10.584 16.185 13.2707 17.3442C13.9099 17.6259 14.4082 17.7884 14.7982 17.9075C15.4374 18.1134 16.0224 18.0809 16.4882 18.0159C17.0082 17.94 18.0807 17.3659 18.2974 16.7375C18.5249 16.1092 18.5249 15.5784 18.449 15.4592C18.3732 15.34 18.2107 15.2859 17.9399 15.1559Z" fill="#F8F8F8"/>
</svg>
