<svg width="29" height="29" viewBox="0 0 29 29" fill="none" xmlns="http://www.w3.org/2000/svg">
<path d="M12.0832 18.125L18.3544 14.5L12.0832 10.875V18.125ZM26.0515 8.66371C26.2086 9.23163 26.3173 9.99288 26.3898 10.9595C26.4744 11.9262 26.5107 12.76 26.5107 13.485L26.5832 14.5C26.5832 17.1462 26.3898 19.0916 26.0515 20.3362C25.7494 21.4237 25.0486 22.1245 23.9611 22.4266C23.3932 22.5837 22.354 22.6925 20.759 22.765C19.1882 22.8495 17.7503 22.8858 16.4211 22.8858L14.4998 22.9583C9.43692 22.9583 6.28317 22.765 5.03859 22.4266C3.95109 22.1245 3.25025 21.4237 2.94817 20.3362C2.79109 19.7683 2.68234 19.007 2.60984 18.0404C2.52525 17.0737 2.489 16.24 2.489 15.515L2.4165 14.5C2.4165 11.8537 2.60984 9.90829 2.94817 8.66371C3.25025 7.57621 3.95109 6.87538 5.03859 6.57329C5.6065 6.41621 6.64567 6.30746 8.24067 6.23496C9.8115 6.15038 11.2494 6.11413 12.5786 6.11413L14.4998 6.04163C19.5628 6.04163 22.7165 6.23496 23.9611 6.57329C25.0486 6.87538 25.7494 7.57621 26.0515 8.66371Z" fill="white"/>
</svg>
